<svg version="1.2" xmlns="http://www.w3.org/2000/svg" viewBox="0 0 512 512" width="512" height="512">
	<title>005-charity-svg</title>
	<style>
		.s0 { fill: #017137 } 
	</style>
	<g id="Outline_00000134940516826527502750000002889339732812200873_">
		<path id="Layer" fill-rule="evenodd" class="s0" d="m308.5 135.5l-1.7 14.5c6.6-1.2 13.4-1.7 20.2-1.4 5-6 12.6-9.9 21-9.9h70.2v15h-70.2c-6.8 0-12.3 5.6-12.3 12.4 0 6.8 5.5 12.3 12.3 12.3h48.6l2.2 3.4c15.9 24.5 46.7 33.5 73.3 21.5l17.7-8.1h22.2v15h-18.9l-14.8 6.7c-9.6 4.4-20 6.6-30.4 6.6-7 0-13.9-1-20.6-3-8.1-2.3-15.6-6-22.4-10.9 8.7 29.3 1.4 62.1-21.4 84.9l-1.3 1.3 37.8 95.2-29.9 80.3v40.7h-15v-43.4l28.9-77.4-33.3-83.8-14.3 14.4c7.7 4.8 12.9 13.4 12.9 23.2v70.2h-15v-70.2c0-6.8-5.6-12.3-12.4-12.3-6.8 0-12.3 5.5-12.3 12.3v48.6l-3.4 2.2c-24.5 15.9-33.5 46.7-21.5 73.3l8.1 17.7v25.2h-15v-21.9l-6.7-14.8c-7.3-16-8.6-34.2-3.6-51 4.5-15.6 14.1-29.2 27.1-38.7v-21.9l-58.6 58.8-43.4-43.5-93.6 37-80.3-29.9h-38.7v-15h41.4l77.4 28.9 82.3-32.6-13.7-13.8c-5 7.1-13.2 11.7-22.4 11.7h-70.2v-15h70.2c6.8 0 12.3-5.6 12.3-12.4 0-6.8-5.5-12.3-12.3-12.3h-48.6l-2.2-3.4c-15.9-24.5-46.7-33.5-73.3-21.5l-17.7 8.1h-23.2v-15h19.9l14.8-6.7c16-7.3 34.2-8.6 51-3.6 15.6 4.5 29.2 14.1 38.7 27.1h20.1l-16-16.1c-24.5-24.5-30.9-60.3-19.4-90.7l-35.1-90.8 29.9-80.3v-32.7h15v35.4l-28.9 77.5 28.3 73.1c3-4.4 6.5-8.6 10.4-12.5q0.1-0.1 0.1-0.2c-2.6-4.1-4.1-9-4.1-14.3v-70.2h15v70.2c0 6.8 5.6 12.3 12.4 12.3 6.8 0 12.3-5.5 12.3-12.3v-48.6l3.4-2.2c24.5-15.9 33.5-46.7 21.5-73.3l-8.1-17.7v-17.2h15v13.9l6.7 14.8c7.3 16 8.6 34.2 3.6 51-4.5 15.6-14.1 29.2-27.1 38.7v30.6c25.9-2.9 51.7 5.9 70.3 24.7l6.3 6.3 6.3-6.3c8.3-8.4 18.2-14.9 28.9-19.1l3.4-30 99.5-36.6 80.2 29.9h37.7v15h-40.4l-77.5-28.9zm-35.6 48.8l-16.9 17-16.9-17c-15.9-16-38.1-23.3-60.2-20-2.4 12.6-13.5 22.1-26.8 22.1-4.4 0-8.5-1.1-12.2-2.9q-0.3 0.3-0.6 0.6c-27.6 27.5-27.7 72.3-0.2 99.9l26.6 26.6c14.5 0.4 26.3 12.2 26.6 26.8l63.7 63.9 58.7-58.9c1.3-12.9 11.5-23.3 24.5-24.6l33.7-33.8c24.3-24.4 27.4-62.7 7.7-90.5h-32.6c-15.1 0-27.3-12.3-27.3-27.4q0-1.3 0.1-2.5c-18 0.5-35.1 7.8-47.9 20.7z"/>
	</g>
</svg>