<svg version="1.2" xmlns="http://www.w3.org/2000/svg" viewBox="0 0 511 511" width="511" height="511">
	<title>044-charity-svg</title>
	<style>
		.s0 { fill: #017137 } 
	</style>
	<g id="Outline_00000153683229572521541910000018184457934850797739_">
		<path id="Layer" fill-rule="evenodd" class="s0" d="m307.1 221.8c7 7 10.9 16.3 10.9 26.2 0 9.9-3.8 19.2-10.8 26.2l-51.7 51.7-51.7-51.7c-7-7-10.8-16.3-10.8-26.2 0-9.9 3.9-19.2 10.9-26.2 14.2-14.1 37.1-14.4 51.6-0.8 14.5-13.6 37.4-13.3 51.6 0.8zm-4.1 26.2c0-5.9-2.3-11.4-6.5-15.6-8.6-8.6-22.7-8.5-31.3 0.1l-9.7 9.7-9.7-9.7c-4.3-4.3-10-6.5-15.7-6.5-5.6 0-11.3 2.1-15.6 6.4-4.2 4.2-6.5 9.7-6.5 15.6 0 5.9 2.3 11.4 6.4 15.6l41.1 41.1 41.1-41.1c4.1-4.2 6.4-9.7 6.4-15.6z"/>
		<path id="Layer" fill-rule="evenodd" class="s0" d="m511 255.5c0 68.2-26.6 132.4-74.8 180.7-48.3 48.2-112.5 74.8-180.7 74.8-68.2 0-132.4-26.6-180.7-74.8-48.2-48.3-74.8-112.5-74.8-180.7 0-68.2 26.6-132.4 74.8-180.7 48.3-48.2 112.5-74.8 180.7-74.8 68.2 0 132.4 26.6 180.7 74.8 48.2 48.3 74.8 112.5 74.8 180.7zm-15 0q0-6.8-0.4-13.5c-6.2 4.9-13.3 8.7-20.8 11.1l-89.4 29.1c-2.8 0.9-5.6 1.3-8.4 1.3-9.2 0-18-4.6-23.1-12.6l-28.2-43.4c-4.7-7.2-5.7-16-2.8-24.1 2.9-8.1 9.2-14.3 17.4-17l28.1-9.1-0.8-2.4c-4.7-14.4 3.2-29.9 17.6-34.6l31.8-10.3c10.6-3.5 22.2-3.1 32.6 1.1l15.3 6.3c-31.5-55.8-84.7-97.7-148.1-114.5 2.8 7.5 4.2 15.4 4.2 23.3v94c0 12.4-8.4 23.3-20.4 26.5l-50 13.4q-3.6 0.9-7.2 0.9c-5.9 0-11.8-2-16.7-5.7-6.8-5.3-10.7-13.2-10.7-21.8v-29.5h-2.5c-15.2 0-27.5-12.3-27.5-27.5v-33.4c0-11.2 4-22 11.2-30.6l10.8-12.8c-64.6 13-120 52-154.6 105.6 7.9-0.3 15.8 0.8 23.3 3.2l89.3 29.1c11.9 3.8 19.7 15.2 19 27.6l-2.8 51.7c-0.4 8.6-4.8 16.3-11.9 21.2-4.6 3.2-10 4.8-15.5 4.8-2.8 0-5.7-0.4-8.5-1.4l-28.1-9.1-0.7 2.4c-2.3 7-7.2 12.7-13.7 16-6.6 3.4-14 3.9-21 1.7l-31.7-10.3c-10.7-3.5-19.8-10.6-25.7-20.2l-8.8-14.1c-1 9-1.6 18.3-1.6 27.6 0 57.6 20.3 110.5 54.2 151.9 2.2-7.5 5.7-14.7 10.3-21.1l55.2-76c7.3-10 20.5-14 32.1-9.5l48.3 18.6c8.1 3.1 14.1 9.6 16.5 17.9 2.5 8.2 1 17-4.1 23.9l-17.3 23.9 2 1.5c5.9 4.3 9.8 10.7 11 17.9 1.1 7.3-0.6 14.5-4.9 20.5l-19.6 27c-6.6 9-16.2 15.5-27.1 18.2l-16.2 4c30.5 14 64.4 21.8 100.1 21.8 30.7 0 60-5.8 87.1-16.3-6.6-4.4-12.4-10-17.1-16.4l-55.2-76c-7.3-10-6.9-23.8 0.9-33.5l32.6-40.2c5.4-6.6 13.5-10.3 22.1-10.1 8.6 0.2 16.5 4.3 21.5 11.3l17.3 23.9 2.1-1.5c12.2-8.9 29.5-6.2 38.4 6.1l19.6 27c6.6 9 9.7 20.2 8.9 31.3l-1.2 16.5c39.4-42.8 63.5-100 63.5-162.6zm-240.5-240.5c-9.7 0-19.3 0.6-28.7 1.7-1.1 3.9-3.1 7.6-5.7 10.8l-12.4 14.7c-5 5.8-7.7 13.3-7.7 20.9v33.4c0 6.9 5.6 12.5 12.5 12.5h2.5v-33.3l5.6-1.4c0.8-0.3 21.4-6.2 21.4-29.8h15c0 24.1-15.4 37.1-27 42.3v66.7c0 3.9 1.8 7.5 4.9 9.9 2.9 2.2 6.5 3.1 10.1 2.3v-74.5h15v70.6l15-4v-79.3h15v75.3l5.7-1.6c5.5-1.4 9.3-6.4 9.3-12v-94c0-8.4-2.1-16.8-5.9-24.2l-1.7-3.2c-13.9-2.5-28.2-3.8-42.9-3.8zm-211.7 126.5c-11.3 20.9-19.6 43.5-24.3 67.5 3.4 2.3 6.3 5.3 8.5 8.8l10.1 16.3c4.1 6.5 10.3 11.4 17.6 13.8l31.7 10.3c3.2 1 6.6 0.8 9.6-0.8 3-1.5 5.2-4.1 6.2-7.2l0.8-2.4-4.1-1.3-27.6-9 0.4-5.8c0-0.8 0.7-22.2-21.7-29.5l4.6-14.3c22.9 7.5 30.5 26.2 31.9 38.8l63.4 20.6c3.7 1.2 7.7 0.6 10.9-1.6 3.1-2.1 5-5.3 5.4-8.9l-70.9-23 4.7-14.3 67 21.8 0.9-15.5-75.4-24.5 4.7-14.3 71.5 23.3 0.3-5.9c0.3-5.7-3.2-10.8-8.6-12.6l-89.3-29c-8-2.6-16.7-3.2-24.9-1.8zm94.6 323.9c3.2-2.4 6.9-4.3 10.9-5.3l18.7-4.6c7.4-1.8 14-6.2 18.5-12.4l19.6-27c2-2.7 2.8-6 2.2-9.3-0.5-3.3-2.3-6.2-5-8.2l-2-1.4-19.5 26.9-5.4-2.1c-0.8-0.3-20.9-7.6-34.8 11.5l-12.2-8.9c14.2-19.4 34.4-20.9 46.7-18.3l21.9-30.1 17.3-23.8c2.3-3.2 3-7.2 1.9-10.9-1-3.5-3.5-6.3-6.8-7.8l-43.8 60.2-12.1-8.8 41.4-57.1-14.5-5.5-46.5 64.1-12.2-8.9 44.3-60.8-5.6-2.2c-5.2-2-11.2-0.2-14.6 4.4l-55.2 76c-4.9 6.8-8.2 14.8-9.4 23.1l-0.5 3.3c16.5 17.3 35.6 32.2 56.7 43.9zm221.4 6.7c21.8-10.5 41.7-24.2 59.2-40.5-1.4-3.8-1.9-7.9-1.6-11.9l1.4-19.2c0.5-7.7-1.7-15.3-6.2-21.5l-19.6-27c-1.9-2.7-4.8-4.4-8.1-5-3.3-0.5-6.6 0.3-9.3 2.3l-2.1 1.4 9 12.3 7.2 10 3.4 4.7-3.7 4.4c-0.5 0.7-13.7 17.6 0.2 36.7l-12.1 8.8c-14.2-19.5-9.3-39.1-3-50.1l-11.9-16.4-27.3-37.5c-2.3-3.2-5.9-5.1-9.8-5.2-3.7-0.1-7.1 1.4-9.6 4.1l43.8 60.3-12.1 8.8-41.5-57.1-9.8 12.1 46.6 64.1-12.1 8.8-44.2-60.9-3.8 4.6c-3.5 4.4-3.7 10.7-0.4 15.2l55.2 76c5 6.8 11.6 12.4 19.1 16.2zm75-237.6l-71.6 23.2 3.2 5c3.1 4.7 9 6.8 14.4 5.1l89.3-29.1c8-2.6 15.4-7.1 21.3-13.1l2.4-2.5c-3.3-24.3-10.2-47.4-20.1-68.8-4.1 0.1-8.2-0.6-12-2.1l-17.8-7.3c-7.1-2.9-15-3.2-22.3-0.8l-31.7 10.3c-6.6 2.2-10.2 9.2-8.1 15.8l0.8 2.4 14.9-4.9 16.8-5.4 3.1 4.9c0.5 0.7 12.4 18.4 34.9 11.1l4.6 14.3c-5.4 1.7-10.4 2.5-15.2 2.5-15.3 0-26.8-8-33.3-15.1l-9 2.9-26.4 8.6-28.1 9.1c-3.7 1.2-6.6 4-7.9 7.7-1.2 3.4-0.9 7.2 0.9 10.3l70.9-23 4.6 14.3-67.1 21.8 8.5 13 75.3-24.5z"/>
	</g>
</svg>