<svg version="1.2" xmlns="http://www.w3.org/2000/svg" viewBox="0 0 512 512" width="512" height="512">
	<title>046-world-svg</title>
	<style>
		.s0 { fill: #017137 } 
	</style>
	<g id="Outline_00000140694753222662665500000014261182372706932362_">
		<path id="Layer" fill-rule="evenodd" class="s0" d="m511.5 372.2l-225.1 139.3-191.5-42.5h-32.4v20h-62.5v-15h47.5v-135h-47.5v-15h62.5v22.4h18.1c3-1.8 9.4-5.3 18.2-9.1-12.6-25.6-19.3-54.1-19.3-82.8 0-65.4 34.2-126 89.7-160-6.3-9.8-9.7-21.3-9.7-33.2 0-16.4 6.4-31.8 18.1-43.4 11.5-11.5 26.9-17.9 43.3-17.9h0.1c16.4 0.1 31.8 6.5 43.3 18.1l2.7 2.7 2.7-2.7c11.5-11.6 26.9-18 43.3-18.1q0.1 0 0.1 0c16.4 0 31.8 6.4 43.3 17.9 11.7 11.6 18.1 27 18.1 43.4 0 11.9-3.4 23.4-9.7 33.2 55.5 34 89.7 94.6 89.7 160 0 33.2-8.9 65.7-25.4 94.2 26.4-11.6 57.1-5 76.5 16.8zm-103.4-216.8l-23.7 9.7-9.7 39.2 29.1 19.9-7.8 49.3-33.7 28.9-45.3-11.4-33.3 43.8v29.3h24.3c18 0 32.9 13 35.9 30.1l56.5-30.3c25.2-30.7 39.1-69.5 39.1-109.3 0-36.2-11.3-70.6-31.4-99.2zm-53-49.2l-11.9 12c11.4 1.1 20.3 10.7 20.3 22.4 0 12.4-10.1 22.5-22.5 22.5h-94.6l1.4 0.9-15.2 22.8 7.8 36.3-17.1 22.6 14 33-38.6 29.6-32.1-14.6-31.9 14.8-34.1-8.6c3 11.1 7.1 21.8 12.2 32.1 13.2-4.4 29.4-7.9 46.9-7.9 52.9 0 73 28.1 79.2 40h29.8v-34.4l42.3-55.6 47.4 11.8 23.6-20.2 5.5-34.5-29.9-20.4 14-56.8 27-10.9c-12.2-14.4-26.8-26.9-43.5-36.9zm-180.6-44.9c0 12.4 4.8 24.1 13.5 32.8l53.7 54h50.6l53.7-54c8.7-8.7 13.5-20.4 13.5-32.8 0-12.4-4.9-24-13.6-32.7-8.8-8.8-20.4-13.5-32.8-13.5q0 0-0.1 0c-12.3 0-24 4.8-32.7 13.6l-13.3 13.3-13.3-13.3c-8.7-8.8-20.4-13.6-32.8-13.6-12.4 0-24 4.7-32.8 13.5-8.7 8.7-13.6 20.3-13.6 32.7zm166.5 86.8c4.1 0 7.5-3.4 7.5-7.5 0-4.2-3.4-7.5-7.5-7.5h-12.6l-15 15zm-207.7 144.5l33.3-15.4 30.1 13.7 22.3-17-12.9-30.3 18.2-24.1-7.7-35.8 13.8-20.6h-37.4c-12.4 0-22.5-10.1-22.5-22.5 0-11.7 9-21.3 20.3-22.4l-11.9-12c-52.2 31.1-84.4 87.4-84.4 148.4 0 9.7 0.9 19.4 2.5 29zm72.4-159.6h-12.6c-4.2 0-7.5 3.3-7.5 7.5 0 4.1 3.3 7.5 7.5 7.5h27.5zm282.2 236.2c-15.9-12.7-38-14.9-56.4-5l-88.7 47.7c-4.8 14.5-18.5 25.1-34.7 25.1h-100.3v-15h100.3c11.9 0 21.5-9.7 21.5-21.5 0-11.9-9.6-21.5-21.5-21.5h-79.4l-1.7-5.2c-0.5-1.3-12.8-34.8-67.2-34.8-39.5 0-72.6 21-72.9 21.2l-1.9 1.2h-22.4v92.6h34l0.8 0.2 186.4 41.3z"/>
	</g>
</svg>